<svg xmlns:xlink="http://www.w3.org/1999/xlink" _ngcontent-fce-c66="" width="88" height="88" viewBox="0 0 88 88" fill="none"
    xmlns="http://www.w3.org/2000/svg">
    <path _ngcontent-fce-c66="" d="M24 84C35.0421 84 44 75.0421 44 64C44 52.9579 35.0421 44 24 44C12.9579 44 4 52.9579 4 64C4 75.0421 12.9579 84 24 84Z" fill="#FEEFC3"></path>
    <path _ngcontent-fce-c66="" d="M64 84C75.0421 84 84 75.0421 84 64C84 52.9579 75.0421 44 64 44C52.9579 44 44 52.9579 44 64C44 75.0421 52.9579 84 64 84Z" fill="#FEEFC3"></path>
    <path _ngcontent-fce-c66="" d="M24 44C35.0421 44 44 35.0421 44 24C44 12.9579 35.0421 4 24 4C12.9579 4 4 12.9579 4 24C4 35.0421 12.9579 44 24 44Z" fill="#FCC934"></path>
    <path _ngcontent-fce-c66="" d="M64 44C75.0421 44 84 35.0421 84 24C84 12.9579 75.0421 4 64 4C52.9579 4 44 12.9579 44 24C44 35.0421 52.9579 44 64 44Z" fill="#FEEFC3"></path>
</svg>